<svg width="24.000000" height="24.000000" viewBox="0 0 24 24" fill="none" xmlns="http://www.w3.org/2000/svg" xmlns:xlink="http://www.w3.org/1999/xlink">
	<desc>
			Created with Pixso.
	</desc>
	<defs>
		<clipPath id="clip6_19">
			<rect id="tabler-icon-bus" width="24.000000" height="24.000000" fill="white" fill-opacity="0"/>
		</clipPath>
	</defs>
	<rect id="tabler-icon-bus" width="24.000000" height="24.000000" fill="#FFFFFF" fill-opacity="0"/>
	<g clip-path="url(#clip6_19)">
		<path id="Vector" d="M4.58 18.41C4.96 18.78 5.46 19 6 19C6.53 19 7.03 18.78 7.41 18.41C7.78 18.03 8 17.53 8 17C8 16.46 7.78 15.96 7.41 15.58C7.03 15.21 6.53 15 6 15C5.46 15 4.96 15.21 4.58 15.58C4.21 15.96 4 16.46 4 17C4 17.53 4.21 18.03 4.58 18.41ZM16.58 18.41C16.96 18.78 17.46 19 18 19C18.53 19 19.03 18.78 19.41 18.41C19.78 18.03 20 17.53 20 17C20 16.46 19.78 15.96 19.41 15.58C19.03 15.21 18.53 15 18 15C17.46 15 16.96 15.21 16.58 15.58C16.21 15.96 16 16.46 16 17C16 17.53 16.21 18.03 16.58 18.41ZM4 17L2 17L2 6C2 5.73 2.1 5.48 2.29 5.29C2.48 5.1 2.73 5 3 5L17 5C18.32 5 19.59 5.73 20.53 7.05C21.47 8.36 22 10.14 22 12L22 17L20 17M16 17L8 17M16 5L17.5 12L22 12M2 10L17 10M7 5L7 10M12 5L12 10" stroke="#1DD100" stroke-opacity="1.000000" stroke-width="1.500000" stroke-linejoin="round"/>
	</g>
</svg>
