<svg width="48.000000" height="220.000000" viewBox="0 0 48 220" fill="none" xmlns="http://www.w3.org/2000/svg" xmlns:xlink="http://www.w3.org/1999/xlink">
	<desc>
			Created with Pixso.
	</desc>
	<defs/>
	<path id="Ellipse 4" d="M0 0C0 3.15 0.62 6.27 1.82 9.18C3.03 12.09 4.8 14.74 7.02 16.97C9.25 19.19 11.9 20.96 14.81 22.17C17.72 23.37 20.84 24 24 24C27.15 24 30.27 23.37 33.18 22.17C36.09 20.96 38.74 19.19 40.97 16.97C43.19 14.74 44.96 12.09 46.17 9.18C47.37 6.27 48 3.15 48 0L0 0Z" fill="#FFFFFF" fill-opacity="1.000000" fill-rule="nonzero"/>
	<path id="Ellipse 3" d="M48 220C48 216.84 47.37 213.72 46.17 210.81C44.96 207.9 43.19 205.25 40.97 203.02C38.74 200.8 36.09 199.03 33.18 197.82C30.27 196.62 27.15 196 24 196C20.84 196 17.72 196.62 14.81 197.82C11.9 199.03 9.25 200.8 7.02 203.02C4.8 205.25 3.03 207.9 1.82 210.81C0.62 213.72 0 216.84 0 220L48 220Z" fill="#FFFFFF" fill-opacity="1.000000" fill-rule="nonzero"/>
	<line id="Line 1" x1="25.000000" y1="32.000000" x2="25.000000" y2="188.000000" stroke="#FFFFFF" stroke-opacity="1.000000" stroke-width="2.000000" stroke-dasharray="5.000000,5.000000"/>
</svg>
