<svg width="189.000000" height="56.000000" viewBox="0 0 189 56" fill="none" xmlns="http://www.w3.org/2000/svg" xmlns:xlink="http://www.w3.org/1999/xlink">
	<desc>
			Created with Pixso.
	</desc>
	<defs/>
	<path id="Vector" d="M182 56L7 56C3.15 56 0 52.85 0 49L0 7C0 3.15 3.15 0 7 0L182 0C185.85 0 189 3.15 189 7L189 49C189 52.85 185.85 56 182 56Z" fill="#000000" fill-opacity="1.000000" fill-rule="nonzero"/>
	<path id="Vector" d="M182 1.12C183.55 1.12 185.05 1.73 186.15 2.84C187.26 3.94 187.88 5.44 187.88 7L187.88 49C187.88 50.55 187.26 52.05 186.15 53.15C185.05 54.26 183.55 54.88 182 54.88L7 54.88C5.44 54.88 3.94 54.26 2.84 53.15C1.73 52.05 1.12 50.55 1.12 49L1.12 7C1.12 5.44 1.73 3.94 2.84 2.84C3.94 1.73 5.44 1.12 7 1.12L182 1.12ZM182 0L7 0C3.15 0 0 3.15 0 7L0 49C0 52.85 3.15 56 7 56L182 56C185.85 56 189 52.85 189 49L189 7C189 3.15 185.85 0 182 0Z" fill="#FFFFFF" fill-opacity="1.000000" fill-rule="nonzero"/>
	<path id="Vector" d="M66.38 14.33C66.38 15.51 66.03 16.44 65.33 17.13C64.55 17.96 63.53 18.38 62.25 18.38C61.03 18.38 60 17.96 59.16 17.12C58.32 16.28 57.9 15.23 57.9 13.99C57.9 12.76 58.32 11.71 59.16 10.87C60 10.03 61.03 9.6 62.25 9.6C62.87 9.6 63.46 9.71 64 9.92C64.55 10.14 65 10.45 65.35 10.84L64.58 11.61C64.33 11.31 63.99 11.05 63.57 10.89C63.15 10.71 62.71 10.62 62.25 10.62C61.34 10.62 60.56 10.94 59.93 11.57C59.3 12.22 58.99 13.01 58.99 13.98C58.99 14.95 59.3 15.74 59.93 16.39C60.56 17.02 61.33 17.34 62.25 17.34C63.09 17.34 63.78 17.1 64.34 16.64C64.9 16.18 65.22 15.52 65.3 14.71L62.25 14.71L62.25 13.7L66.33 13.7C66.36 13.92 66.38 14.13 66.38 14.33ZM72.84 9.79L72.84 10.83L69.01 10.83L69.01 13.49L72.46 13.49L72.46 14.5L69.01 14.5L69.01 17.16L72.84 17.16L72.84 18.19L67.94 18.19L67.94 9.79L72.84 9.79ZM77.39 10.83L77.39 18.19L76.31 18.19L76.31 10.83L73.96 10.83L73.96 9.79L79.73 9.79L79.73 10.83L77.39 10.83ZM84.99 18.19L83.91 18.19L83.91 9.79L84.99 9.79L84.99 18.19ZM89.78 10.83L89.78 18.19L88.7 18.19L88.7 10.83L86.35 10.83L86.35 9.79L92.12 9.79L92.12 10.83L89.78 10.83ZM104.28 13.99C104.28 15.24 103.86 16.28 103.04 17.12C102.2 17.96 101.17 18.38 99.96 18.38C98.74 18.38 97.72 17.96 96.87 17.12C96.05 16.28 95.63 15.24 95.63 13.99C95.63 12.75 96.05 11.71 96.87 10.87C97.7 10.03 98.72 9.6 99.96 9.6C101.17 9.6 102.2 10.02 103.04 10.87C103.88 11.73 104.28 12.76 104.28 13.99ZM96.75 13.99C96.75 14.96 97.06 15.77 97.66 16.4C98.27 17.03 99.04 17.35 99.96 17.35C100.87 17.35 101.64 17.03 102.24 16.4C102.85 15.77 103.16 14.97 103.16 13.99C103.16 13.01 102.85 12.22 102.24 11.59C101.62 10.96 100.87 10.63 99.96 10.63C99.04 10.63 98.27 10.96 97.66 11.59C97.06 12.22 96.75 13.03 96.75 13.99ZM106.87 18.19L105.79 18.19L105.79 9.79L107.11 9.79L111.2 16.33L111.24 16.33L111.2 14.71L111.2 9.79L112.28 9.79L112.28 18.19L111.16 18.19L106.89 11.35L106.84 11.35L106.89 12.97L106.89 18.19L106.87 18.19Z" fill="#FFFFFF" fill-opacity="1.000000" fill-rule="nonzero"/>
	<path id="Vector" d="M65.33 17.13C64.55 17.96 63.53 18.38 62.25 18.38C61.03 18.38 60 17.96 59.16 17.12C58.32 16.28 57.9 15.23 57.9 13.99C57.9 12.76 58.32 11.71 59.16 10.87C60 10.03 61.03 9.6 62.25 9.6C62.87 9.6 63.46 9.71 64 9.92C64.55 10.14 65 10.45 65.35 10.84L64.58 11.61C64.33 11.31 63.99 11.05 63.57 10.89C63.15 10.71 62.71 10.62 62.25 10.62C61.34 10.62 60.56 10.94 59.93 11.57C59.3 12.22 58.99 13.01 58.99 13.98C58.99 14.95 59.3 15.74 59.93 16.39C60.56 17.02 61.33 17.34 62.25 17.34C63.09 17.34 63.78 17.1 64.34 16.64C64.9 16.18 65.22 15.52 65.3 14.71L62.25 14.71L62.25 13.7L66.33 13.7C66.36 13.92 66.38 14.13 66.38 14.33C66.38 15.51 66.03 16.44 65.33 17.13ZM72.84 10.83L69.01 10.83L69.01 13.49L72.46 13.49L72.46 14.5L69.01 14.5L69.01 17.16L72.84 17.16L72.84 18.19L67.94 18.19L67.94 9.79L72.84 9.79L72.84 10.83ZM77.39 18.19L76.31 18.19L76.31 10.83L73.96 10.83L73.96 9.79L79.73 9.79L79.73 10.83L77.39 10.83L77.39 18.19ZM83.91 18.19L83.91 9.79L84.99 9.79L84.99 18.19L83.91 18.19ZM89.78 18.19L88.7 18.19L88.7 10.83L86.35 10.83L86.35 9.79L92.12 9.79L92.12 10.83L89.78 10.83L89.78 18.19ZM103.04 17.12C102.2 17.96 101.17 18.38 99.96 18.38C98.74 18.38 97.72 17.96 96.87 17.12C96.05 16.28 95.63 15.24 95.63 13.99C95.63 12.75 96.05 11.71 96.87 10.87C97.7 10.03 98.72 9.6 99.96 9.6C101.17 9.6 102.2 10.02 103.04 10.87C103.88 11.73 104.28 12.76 104.28 13.99C104.28 15.24 103.86 16.28 103.04 17.12ZM97.66 16.4C98.27 17.03 99.04 17.35 99.96 17.35C100.87 17.35 101.64 17.03 102.24 16.4C102.85 15.77 103.16 14.97 103.16 13.99C103.16 13.01 102.85 12.22 102.24 11.59C101.62 10.96 100.87 10.63 99.96 10.63C99.04 10.63 98.27 10.96 97.66 11.59C97.06 12.22 96.75 13.03 96.75 13.99C96.75 14.96 97.06 15.77 97.66 16.4ZM105.79 18.19L105.79 9.79L107.11 9.79L111.2 16.33L111.24 16.33L111.2 14.71L111.2 9.79L112.28 9.79L112.28 18.19L111.16 18.19L106.89 11.35L106.84 11.35L106.89 12.97L106.89 18.19L106.87 18.19L105.79 18.19Z" stroke="#FFFFFF" stroke-opacity="1.000000" stroke-width="0.500000"/>
	<path id="Vector" d="M95.39 30.44C92.1 30.44 89.41 32.95 89.41 36.39C89.41 39.82 92.1 42.34 95.39 42.34C98.68 42.34 101.37 39.82 101.37 36.39C101.37 32.95 98.68 30.44 95.39 30.44ZM95.39 40.01C93.59 40.01 92.03 38.52 92.03 36.39C92.03 34.25 93.59 32.78 95.39 32.78C97.2 32.78 98.75 34.25 98.75 36.39C98.75 38.52 97.18 40.01 95.39 40.01ZM82.34 30.44C79.05 30.44 76.36 32.95 76.36 36.39C76.36 39.82 79.05 42.34 82.34 42.34C85.63 42.34 88.32 39.82 88.32 36.39C88.32 32.95 85.63 30.44 82.34 30.44ZM82.34 40.01C80.54 40.01 78.98 38.52 78.98 36.39C78.98 34.25 80.54 32.78 82.34 32.78C84.15 32.78 85.7 34.25 85.7 36.39C85.7 38.52 84.15 40.01 82.34 40.01ZM66.83 32.28L66.83 34.8L72.88 34.8C72.7 36.21 72.22 37.26 71.51 37.98C70.62 38.86 69.25 39.82 66.85 39.82C63.12 39.82 60.21 36.83 60.21 33.1C60.21 29.38 63.12 26.38 66.85 26.38C68.85 26.38 70.32 27.17 71.39 28.19L73.17 26.41C71.66 24.97 69.66 23.86 66.83 23.86C61.74 23.86 57.45 28.01 57.45 33.12C57.45 38.21 61.74 42.37 66.83 42.37C69.59 42.37 71.66 41.48 73.28 39.78C74.95 38.12 75.47 35.76 75.47 33.87C75.47 33.29 75.43 32.74 75.33 32.29L66.83 32.29L66.83 32.28ZM130.27 34.24C129.78 32.91 128.26 30.44 125.17 30.44C122.1 30.44 119.56 32.85 119.56 36.39C119.56 39.73 122.08 42.34 125.46 42.34C128.19 42.34 129.78 40.68 130.42 39.71L128.39 38.35C127.72 39.35 126.79 40.01 125.46 40.01C124.13 40.01 123.18 39.4 122.58 38.2L130.55 34.91L130.27 34.24ZM122.15 36.23C122.08 33.93 123.92 32.75 125.25 32.75C126.29 32.75 127.17 33.27 127.47 34.01L122.15 36.23ZM115.68 41.99L118.3 41.99L118.3 24.49L115.68 24.49L115.68 41.99ZM111.39 31.77L111.3 31.77C110.71 31.07 109.59 30.44 108.16 30.44C105.18 30.44 102.45 33.06 102.45 36.42C102.45 39.75 105.18 42.36 108.16 42.36C109.57 42.36 110.71 41.73 111.3 41L111.38 41L111.38 41.85C111.38 44.14 110.16 45.35 108.2 45.35C106.61 45.35 105.61 44.21 105.21 43.24L102.92 44.19C103.58 45.77 105.32 47.71 108.2 47.71C111.27 47.71 113.86 45.9 113.86 41.5L113.86 30.81L111.38 30.81L111.38 31.77L111.39 31.77ZM108.38 40.01C106.58 40.01 105.07 38.49 105.07 36.42C105.07 34.32 106.58 32.8 108.38 32.8C110.16 32.8 111.56 34.34 111.56 36.42C111.58 38.49 110.18 40.01 108.38 40.01ZM142.53 24.49L136.27 24.49L136.27 41.99L138.89 41.99L138.89 35.36L142.54 35.36C145.44 35.36 148.28 33.26 148.28 29.93C148.27 26.59 145.41 24.49 142.53 24.49ZM142.59 32.92L138.88 32.92L138.88 26.92L142.59 26.92C144.55 26.92 145.65 28.54 145.65 29.91C145.65 31.28 144.55 32.92 142.59 32.92ZM158.74 30.42C156.85 30.42 154.89 31.26 154.08 33.09L156.4 34.06C156.89 33.09 157.82 32.77 158.78 32.77C160.13 32.77 161.51 33.58 161.53 35.02L161.53 35.2C161.05 34.94 160.04 34.53 158.8 34.53C156.29 34.53 153.76 35.9 153.76 38.47C153.76 40.8 155.8 42.32 158.1 42.32C159.85 42.32 160.83 41.53 161.43 40.61L161.51 40.61L161.51 41.95L164.03 41.95L164.03 35.25C164.05 32.15 161.72 30.42 158.74 30.42ZM158.42 40.01C157.57 40.01 156.38 39.57 156.38 38.52C156.38 37.18 157.86 36.66 159.15 36.66C160.3 36.66 160.84 36.91 161.53 37.25C161.43 38.01 161.06 38.7 160.49 39.21C159.92 39.72 159.18 40 158.42 40.01ZM173.23 30.79L170.24 38.38L170.15 38.38L167.04 30.79L164.23 30.79L168.89 41.41L166.23 47.3L168.96 47.3L176.14 30.79L173.23 30.79ZM149.71 41.99L152.33 41.99L152.33 24.49L149.71 24.49L149.71 41.99Z" fill="#FFFFFF" fill-opacity="1.000000" fill-rule="nonzero"/>
	<path id="Vector" d="M14.09 12.99C14.01 13.32 13.95 13.66 13.95 14.02L13.95 41.98C13.95 42.35 14 42.68 14.09 43.02L29.51 27.6L14.09 12.99Z" fill="#4285F4" fill-opacity="1.000000" fill-rule="nonzero"/>
	<path id="Vector" d="M29 27.18L14.09 43L14.09 43.02C14.25 43.62 14.55 44.17 14.96 44.64C15.37 45.1 15.89 45.46 16.46 45.7C17.04 45.93 17.66 46.03 18.28 45.99C18.89 45.94 19.49 45.75 20.03 45.44L20.07 45.41L36.84 35.74L29 27.18Z" fill="#EA4335" fill-opacity="1.000000" fill-rule="nonzero"/>
	<path id="Vector" d="M44.08 24.49L44.07 24.48L36.83 20.28L28.67 27.55L36.86 35.74L44.07 31.58C44.7 31.23 45.24 30.72 45.61 30.1C45.98 29.48 46.18 28.77 46.18 28.04C46.18 27.32 45.99 26.6 45.62 25.98C45.25 25.36 44.72 24.84 44.08 24.49Z" fill="#FBBC04" fill-opacity="1.000000" fill-rule="nonzero"/>
	<path id="Vector" d="M29.12 27.99L36.83 20.28L20.07 10.56C19.54 10.24 18.93 10.05 18.31 10C17.69 9.96 17.06 10.05 16.48 10.28C15.91 10.52 15.39 10.88 14.97 11.35C14.56 11.81 14.26 12.37 14.09 12.97L29.12 27.99Z" fill="#34A853" fill-opacity="1.000000" fill-rule="nonzero"/>
</svg>
